<svg xmlns="http://www.w3.org/2000/svg" viewBox="0 0 64 64">
  <defs>
    <linearGradient id="bg" x1="8" y1="6" x2="58" y2="60" gradientUnits="userSpaceOnUse">
      <stop stop-color="#172554"/>
      <stop offset="1" stop-color="#2563eb"/>
    </linearGradient>
    <filter id="s" x="-20%" y="-20%" width="140%" height="140%">
      <feDropShadow dx="0" dy="2" stdDeviation="2" flood-color="#0f172a" flood-opacity=".25"/>
    </filter>
  </defs>
  <rect x="4" y="4" width="56" height="56" rx="16" fill="url(#bg)"/>
  <path d="M16 20c5 0 9 .8 13 3v25c-4-2.2-8-3-13-3V20Z" fill="#ffffff" opacity=".95" filter="url(#s)"/>
  <path d="M48 20c-5 0-9 .8-13 3v25c4-2.2 8-3 13-3V20Z" fill="#dbeafe" opacity=".98" filter="url(#s)"/>
  <path d="M32 23v26" stroke="#93c5fd" stroke-width="2" stroke-linecap="round"/>
  <path d="M43.5 14.5l6 6-17.8 17.8-7.1 1.1 1.1-7.1 17.8-17.8Z" fill="#facc15" stroke="#ffffff" stroke-width="2" stroke-linejoin="round"/>
  <path d="M43.5 14.5l6 6" stroke="#1e3a8a" stroke-width="2" stroke-linecap="round"/>
  <text x="31.7" y="55" text-anchor="middle" font-family="Segoe UI, Arial, sans-serif" font-size="11" font-weight="900" fill="#ffffff">TS</text>
</svg>